<svg
    xmlns="http://www.w3.org/2000/svg"
    width="250"
    height="70"
    viewBox="0 0 187.5 52.5"
    preserveAspectRatio="xMidYMid meet"
  >
    <defs>
      <clipPath id="clipPath1">
        <path d="M3.539062 3.359375H44.398438V48.675781H3.539062z" />
      </clipPath>
    </defs>
    <g>
      <g fill="#ff5757">
        <g transform="translate(45.328324, 37.517686)">
          <path d="M17.625 -16.609375V0h-6.9375v-16.609375H1.53125v-5.15625h25.203125v5.15625z" />
        </g>
        <g transform="translate(71.642651, 37.517686)">
          <path d="M17.625 -16.609375V0h-6.9375v-16.609375H1.53125v-5.15625h25.203125v5.15625z" />
        </g>
      </g>
      <g fill="#1f66ff">
        <g transform="translate(97.95988, 37.517686)">
          <path d="M29.0625 0v-14.484375l-1.28125 2.421875L21.078125 0h-3.921875l-6.65625-12.0625-1.28125-2.421875V0H2.84375v-21.765625h9.546875L18.734375 -10.03125l.90625 1.765625.921875-1.765625L26.84375 -21.765625h9.140625V0z" />
        </g>
        <g transform="translate(134.865313, 37.517686)">
          <path d="M26.765625 -14.578125c0 1-.199219 1.929688-.59375 2.78125-.386719.84375-.976563 1.578125-1.765625 2.203125-.78125.625-1.757812 1.117188-2.921875 1.46875-1.15625.34375-2.511719.515625-4.0625.515625H9.734375V0H2.84375v-21.765625h14.578125c1.550781 0 2.90625.179687 4.0625.53125 1.164062.34375 2.140625.828125 2.921875 1.453125.78125.617188 1.378906 1.351562 1.765625 2.203125.394531.84375.59375 1.765625.59375 2.765625zm-6.984375.296875c0-.757812-.296875-1.394531-.890625-1.90625-.585938-.519531-1.554688-.78125-2.90625-.78125H9.734375v5.59375h6.34375c1.332031 0 2.28125-.265625 2.84375-.796875.570313-.539063.859375-1.179687.859375-1.921875z" />
        </g>
        <g transform="translate(161.016196, 37.517686)">
          <path d="M23.203125-5.65625c0 .761719-.25 1.527344-.75 2.296875-.5.761719-1.226563 1.453125-2.171875 2.078125-.949219.617188-2.109375 1.117188-3.484375 1.5-1.375.394531-2.921875.59375-4.640625.59375-1.023438 0-1.980469-.058594-2.875-.171875-.898437-.105469-1.789062-.261719-2.671875-.46875-.875-.195313-1.765625-.445313-2.671875-.75-.90625-.3125-1.871094-.675781-2.890625-1.09375L2.9375-5.84375c1.507812.625 2.957031 1.140625 4.34375 1.546875 1.394531.40625 2.828125.609375 4.296875.609375.957031 0 1.765625-.085938 2.421875-.265625.664062-.175781 1.210938-.394531 1.640625-.65625.425781-.257812.726563-.554688.90625-.890625.1875-.34375.28125-.675781.28125-1v-.109375c0-.78125-.414062-1.410156-1.234375-1.890625-.8125-.476562-2.046875-.71875-3.703125-.71875H9.15625v-3.40625h2.734375c1.8125 0 3.085938-.242188 3.828125-.734375.738281-.488281 1.109375-1.132813 1.109375-1.9375v-.125c0-.695312-.429688-1.304688-1.28125-1.828125-.84375-.53125-2.167969-.796875-3.96875-.796875-1.335938 0-2.609375.203125-3.828125.609375-1.21875.40625-2.476562.933594-3.765625 1.578125L2-20.03125c.90625-.414062 1.753906-.78125 2.546875-1.09375.800781-.320312 1.601563-.59375 2.40625-.8125.8125-.21875 1.648438-.378906 2.515625-.484375.875-.113281 1.847656-.171875 2.921875-.171875 1.71875 0 3.234375.1875 4.546875.5625 1.320312.375 2.429688.867188 3.328125 1.46875.894531.59375 1.578125 1.265625 2.046875 2.015625.46875.75.703125 1.507812.703125 2.265625v.171875c0 .5625-.121094 1.121094-.359375 1.671875-.242188.542969-.625 1.042969-1.15625 1.5-.523438.460938-1.199219.855469-2.03125 1.1875-.824219.335938-1.824219.570313-3 0.703125 1.269531.179687 2.332031.449219 3.1875.8125.863281.355469 1.554688.773438 2.078125 1.25.519531.480469.894531.992188 1.125 1.53125.226562.542969.34375 1.078125.34375 1.609375z" />
        </g>
      </g>

      <path
        fill="#ff0000"
        d="M26.203125 30.378906 10.097656 38.914062C8.765625 39.621094 7.050781 38.800781 7.050781 37.453125V20.378906C7.050781 19.039062 8.765625 18.207031 10.097656 18.914062L26.203125 27.453125C27.464844 28.132812 27.464844 29.707031 26.203125 30.378906Z"
      />

      <g clipPath="url(#clipPath1)">
        <path
          fill="#1f66ff"
          d="M44.105469 29.160156c.011719 1.878906-.535157 3.726563-1.582031 5.347656-1.113282 1.726563-2.773438 3.160157-4.8125 4.160157L17.332031 48.640625v-6.601563l17.078125-8.359374c.980469-.480469 1.753906-1.140625 2.28125-1.960938.492188-.765625.753906-1.644531.746094-2.539062 0-.898438-.273438-1.773438-.773438-2.539063-.539062-.8125-1.3125-1.460937-2.300781-1.941406L3.539062 9.925781V3.359375l34.078126 16.339844c2.046874.980469 3.726562 2.40625 4.859375 4.121093 1.054687 1.621094 1.621094 3.460938 1.628906 5.339844z"
        />
      </g>
    </g>
  </svg>