<svg xmlns="http://www.w3.org/2000/svg" xmlns:xlink="http://www.w3.org/1999/xlink" width="250" zoomAndPan="magnify" viewBox="0 0 187.5 187.499992" height="250" preserveAspectRatio="xMidYMid meet" version="1.2"><defs><clipPath id="57497baa76"><path d="M 13.402344 4.132812 L 173.367188 4.132812 L 173.367188 183 L 13.402344 183 Z M 13.402344 4.132812 "/></clipPath></defs><g id="1bf4b5ac42"><path style=" stroke:none;fillRule:nonzero;fill:#ff0000;fill-opacity:1;" d="M 102.742188 110.632812 L 39.261719 144.289062 C 34.019531 147.078125 27.253906 143.84375 27.253906 138.523438 L 27.253906 71.214844 C 27.253906 65.9375 34.019531 62.660156 39.261719 65.449219 L 102.742188 99.105469 C 107.726562 101.78125 107.726562 107.992188 102.742188 110.632812 Z M 102.742188 110.632812 "/><g clip-rule="nonzero" clip-path="url(#57497baa76)"><path style=" stroke:none;fillRule:nonzero;fill:#1f66ff;fill-opacity:1;" d="M 173.324219 105.835938 C 173.359375 113.234375 171.199219 120.523438 167.078125 126.917969 C 162.6875 133.726562 156.144531 139.378906 148.109375 143.320312 L 67.785156 182.625 L 67.785156 156.59375 L 135.097656 123.648438 C 138.960938 121.753906 142.011719 119.152344 144.09375 115.914062 C 146.027344 112.898438 147.070312 109.441406 147.03125 105.910156 C 147.03125 102.375 145.953125 98.917969 143.984375 95.910156 C 141.863281 92.710938 138.8125 90.144531 134.910156 88.246094 L 13.417969 30.015625 L 13.417969 4.132812 L 147.738281 68.539062 C 155.808594 72.40625 162.425781 78.019531 166.890625 84.789062 C 171.050781 91.183594 173.285156 98.433594 173.324219 105.835938 Z M 173.324219 105.835938 "/></g><path style=" stroke:none;fillRule:nonzero;fill:#ff0000;fill-opacity:1;" d="M 41.910156 80.316406 C 41.949219 80.222656 42.039062 80.175781 42.183594 80.175781 C 42.261719 80.175781 42.375 80.203125 42.519531 80.253906 C 43.195312 80.570312 44.714844 80.933594 47.070312 81.347656 C 49.421875 81.757812 50.984375 81.957031 51.757812 81.957031 C 51.898438 81.957031 51.976562 82.152344 52 82.535156 C 52.019531 82.914062 52.03125 83.261719 52.03125 83.585938 C 52.03125 84.175781 52.003906 85.070312 51.953125 86.265625 C 51.910156 87.464844 51.824219 88.90625 51.695312 90.585938 L 51.558594 92.277344 L 52.636719 92.078125 C 53.550781 91.894531 54.773438 91.601562 56.304688 91.195312 C 57.492188 90.832031 58.289062 90.648438 58.695312 90.648438 C 58.878906 90.648438 58.988281 90.695312 59.03125 90.785156 C 59.121094 91.191406 59.503906 92.320312 60.1875 94.179688 C 60.863281 96.035156 61.296875 97.144531 61.480469 97.511719 L 62.027344 98.53125 L 60.933594 98.667969 C 60.433594 98.757812 59.144531 98.917969 57.066406 99.140625 C 55.25 99.375 53.910156 99.558594 53.050781 99.6875 L 51.695312 99.824219 L 51.617188 102.945312 C 51.617188 103.546875 51.617188 104.140625 51.617188 104.726562 C 51.617188 106.398438 51.664062 107.9375 51.757812 109.335938 C 51.9375 111.558594 52.167969 113.171875 52.441406 114.175781 C 52.714844 115.171875 53.144531 115.828125 53.734375 116.136719 C 54.089844 116.414062 54.878906 116.605469 56.109375 116.714844 C 57.332031 116.832031 58.335938 116.882812 59.105469 116.882812 C 59.601562 116.882812 60.074219 116.863281 60.523438 116.824219 C 60.976562 116.773438 61.363281 116.746094 61.679688 116.746094 C 62.082031 116.746094 62.285156 116.792969 62.285156 116.882812 C 62.285156 117.109375 61.695312 117.824219 60.523438 119.03125 C 59.34375 120.222656 58.460938 121.027344 57.875 121.433594 C 56.695312 122.203125 55.609375 122.746094 54.617188 123.0625 C 53.621094 123.386719 52.371094 123.550781 50.875 123.550781 C 49.601562 123.550781 48.730469 123.503906 48.253906 123.414062 C 47.777344 123.320312 47.179688 123.09375 46.460938 122.726562 C 45.414062 122.230469 44.53125 121.621094 43.8125 120.902344 C 42.949219 119.898438 42.445312 118.921875 42.304688 117.980469 C 42.171875 117.027344 42.109375 115.414062 42.109375 113.140625 C 42.109375 111.875 42.128906 110.335938 42.183594 108.527344 L 42.304688 100.980469 L 40.070312 101.527344 C 38.667969 101.84375 37.875 102 37.695312 102 C 37.640625 102 37.617188 102 37.617188 102 C 37.578125 101.960938 37.246094 100.867188 36.628906 98.714844 C 36.019531 96.550781 35.648438 95.226562 35.519531 94.726562 C 35.519531 94.6875 35.519531 94.640625 35.519531 94.589844 C 35.519531 94.367188 35.640625 94.234375 35.882812 94.195312 C 36.132812 94.144531 37.007812 94.070312 38.5 93.980469 C 40.5 93.890625 41.636719 93.796875 41.910156 93.707031 C 42.09375 93.667969 42.191406 92.96875 42.214844 91.605469 C 42.234375 90.25 42.246094 89.429688 42.246094 89.15625 C 42.246094 87.027344 42.152344 84.988281 41.96875 83.039062 C 41.878906 81.996094 41.832031 81.25 41.832031 80.800781 C 41.832031 80.527344 41.855469 80.367188 41.910156 80.316406 Z M 41.910156 80.316406 "/></g></svg>